<?xml version="1.0" encoding="UTF-8" standalone="no"?>
<svg width="100px" height="98px" viewBox="0 0 100 98" version="1.1" xmlns="http://www.w3.org/2000/svg" xmlns:xlink="http://www.w3.org/1999/xlink">
    <!-- Generator: Sketch 39.1 (31720) - http://www.bohemiancoding.com/sketch -->
    <title>SnitchIcon</title>
    <desc>Created with Sketch.</desc>
    <defs></defs>
    <g id="Page-1" stroke="none" stroke-width="1" fill="none" fill-rule="evenodd">
        <g id="SnitchIcon">
            <path d="M67.3373494,36.2499686 C67.3373494,34.6627476 66.0535394,33.3777778 64.4698795,33.3777778 C62.889442,33.3777778 61.6024096,34.6637013 61.6024096,36.2499686 L61.6024096,51.4666667 L61.6024096,63.8 C61.8251418,70.6482957 67.4249181,76.1333333 74.3012048,76.1333333 C81.1774916,76.1333333 86.7772678,70.6482957 86.993518,63.8 L87,51.4666667 L87,46.1229314 C87,44.5337742 85.71619,43.2444444 84.1325301,43.2444444 C82.5520926,43.2444444 81.2650602,44.5331869 81.2650602,46.1229314 L81.2650602,53.1111111 L80.4457831,53.1111111 L80.4457831,37.8928437 C80.4457831,36.3059221 79.1619731,35.0222222 77.5783133,35.0222222 C75.9978758,35.0222222 74.7108434,36.3074432 74.7108434,37.8928437 L74.7108434,49 L73.8915663,49 L73.8915663,33.7942134 C73.8915663,32.2002441 72.6077563,30.9111111 71.0240964,30.9111111 C69.4436589,30.9111111 68.1566265,32.2019199 68.1566265,33.7942134 L68.1566265,49 L67.3373494,49 L67.3373494,36.2499686 L67.3373494,36.2499686 L67.3373494,36.2499686 Z M19,32.5516912 C19,21.2013056 28.1675842,12 39.4819277,12 C50.793784,12 59.9638554,21.2038924 59.9638554,32.5516912 L59.9638554,65.4483088 C59.9638554,76.7986944 50.7962712,86 39.4819277,86 C28.1700714,86 19,76.7961076 19,65.4483088 L19,32.5516912 L19,32.5516912 L19,32.5516912 Z M50.9518072,44.0666667 C54.119127,44.0666667 56.686747,41.4898166 56.686747,38.3111111 C56.686747,35.1324056 54.119127,32.5555556 50.9518072,32.5555556 C47.7844875,32.5555556 45.2168675,35.1324056 45.2168675,38.3111111 C45.2168675,41.4898166 47.7844875,44.0666667 50.9518072,44.0666667 L50.9518072,44.0666667 L50.9518072,44.0666667 L50.9518072,44.0666667 Z M51.7710843,60.5111111 C51.7710843,58.6947079 53.2357876,57.2222222 55.0561914,57.2222222 L59.9638554,57.2222222 L59.9638554,63.8 L55.0561914,63.8 C53.2418768,63.8 51.7710843,62.3238182 51.7710843,60.5111111 L51.7710843,60.5111111 L51.7710843,60.5111111 L51.7710843,60.5111111 Z" id="Shape" fill="#000000"></path>
            <path d="M36.1052495,76.8633362 C36.1052494,77.2024664 36.2390164,79.2339645 36.5217147,79.3224161 C36.804413,79.4108678 37.639656,78.9260522 38.0411348,78.9260512 C38.4426135,78.9260501 39.7002364,79.4122916 39.7002364,79.6704857 C39.7002364,79.9286797 40.0650715,82.8016474 40.0650715,83.0826104 C40.0650715,83.3635733 40.2181386,83.4980539 40.4763338,83.4980528 C40.7345289,83.4980518 42.5961487,83.0313815 42.9887334,83.0313805 C43.381318,83.0313794 45.4457229,83.8775643 45.4457229,84.1288209 C45.4457229,84.3800777 45.9397001,86.504207 46.1743259,86.5833202 C46.4089518,86.6624332 46.8272508,86.2926242 47.4551623,86.1448422 C48.1141936,85.9897361 48.8905713,85.9771891 49.1771451,85.9771886 C49.7367605,85.9771876 50.5600855,86.4151341 50.9378171,86.4151331 C51.3155486,86.415132 51.2190923,87.0153948 51.3923045,87.3294003 C51.5655167,87.6434057 51.4135614,88.3652042 51.7714591,88.5028403 C51.993983,88.588416 52.7050707,88.0432001 53.0101821,87.9918758 C53.3152935,87.9405514 53.6383944,87.8039443 53.7962408,87.8039439 C54.213551,87.8039429 56.7075538,87.0148619 57.0720638,87.0148609 C57.4365737,87.0148598 58.0432973,87.1236365 58.0432973,87.5409457 C58.0432973,87.8214586 57.922727,88.444035 57.7903052,88.8679763 C57.7257277,89.0747174 57.5962808,89.1294437 57.5962808,89.2762699 C57.5962808,89.4583433 57.8551482,89.5504359 57.9504431,89.7070993 C58.0895758,89.9358305 58.113469,90.1959181 58.4039522,90.1959172 C58.6896923,90.1959163 60.1551097,87.7542873 61.8124304,86.4151331 C62.9939164,85.4604644 64.449183,85.4756519 64.8438884,85.4756514 C65.7922641,85.4756504 66.8977094,85.3537147 66.8977093,85.6654511 C66.8977093,85.9771876 66.427924,86.7035692 66.427924,87.0189522 C66.427924,87.3343352 66.3339136,87.5460164 66.5535084,87.5460153 C66.6766864,87.5460148 67.6838874,85.6257331 68.938189,84.285001 C69.9199872,83.2355498 71.2080752,82.8006687 71.5428203,82.8006683 C72.3052208,82.8006673 73.1168945,82.8754683 73.1168945,83.1276144 C73.1168945,83.3797605 73.0052738,83.5360316 73.2406112,83.5360305 C73.378978,83.5360299 73.9907661,82.1196279 74.9874084,81.2195675 C75.6858774,80.5887853 76.7720827,80.4711759 77.0316237,80.4711755 C77.6615023,80.4711744 77.999277,80.8256765 78.1670418,80.7929186 C78.4767781,80.7324391 78.8913283,78.9844225 79.8936495,77.822563 C80.6249741,76.9748344 81.7921382,76.4086271 82.0595358,76.4086267 C82.6934168,76.4086257 82.6930611,76.5164682 83.0707926,76.5164671 C83.4485242,76.5164661 83.472894,75.9919838 83.472894,75.7032817 C83.472894,75.0364928 83.8078408,73.8888714 84.724341,72.4530679 C85.5182975,71.2092434 86.7093606,70.3269887 87.3057976,70.326277 C87.9022346,70.3255651 88.5413631,70.531642 88.682779,70.531641 C88.8241949,70.5316399 88.7213793,70.3398857 88.7213793,70.1826373 C88.7213792,70.025389 88.4071515,68.5025467 88.4071514,68.1237468 C88.4071514,67.9239443 88.5431089,65.8438276 89.2506657,64.4769073 C89.8845467,63.2523219 91.0981443,62.9789222 91.0981443,62.5779327 C91.0981443,62.1769431 90.2913622,61.7574983 90.2913622,61.176848 C90.2913622,60.8681525 90.2150956,60.361023 90.2150956,59.878535 C90.2150956,59.4534726 90.2913622,59.0414421 90.2913622,58.8866226 C90.2913622,58.5862448 90.4863527,57.4148661 91.0981443,56.4607623 C91.7274086,55.4794087 92.7739667,54.7169437 92.7739667,54.5665012 C92.7739667,54.4051792 91.7473468,53.924857 91.2347127,52.9433764 C90.8044972,52.1196927 90.8087304,50.6489271 90.8087304,50.2793773 C90.8087304,49.8691344 91.0188522,48.6299444 91.359363,47.9269374 C91.691085,47.2420774 92.2184424,47.2403937 92.2184424,47.0046658 C92.2184424,46.7796689 91.6974275,46.1537698 91.5966125,45.7309449 C91.4957985,45.3081201 91.359363,43.4326892 91.359363,43.2036029 C91.359363,43.0237416 91.3021048,42.0355905 91.646776,41.2346764 C92.1319718,40.1072219 93.0680937,39.0891768 93.0680937,38.9376467 C93.0680937,38.7973471 91.7460335,38.3906165 91.2347127,37.2766775 C90.7233919,36.1627385 90.6357409,35.257499 90.6357409,34.2883555 C90.6357409,33.2533243 90.5842296,32.5626278 90.8087304,31.7925436 C91.0425382,30.9905381 91.5526313,30.1267722 91.547206,29.9479556 C91.5424063,29.7897509 88.631592,30.0999121 87.2302868,28.9497731 C85.7634073,27.7458131 85.6927228,25.3365536 85.6927228,24.2688193 C85.6927228,23.5296371 86.0651617,22.6120138 86.3427466,22.0288897 C86.4661277,21.7697024 86.6338499,21.572433 86.6338499,21.4934214 C86.6338499,21.2366483 86.6338499,21.170033 86.4766026,21.1700327 C86.3193552,21.1700325 84.1034472,21.5260806 82.8165998,20.141655 C81.530359,18.7578821 81.1794666,16.1633771 81.1794666,15.4290821 C81.1794666,14.6947872 81.5738746,13.9943782 81.4474452,13.7759399 C81.3210159,13.5575016 77.9928069,14.9353718 76.165696,14.9420424 C75.4623403,14.9446102 74.2224234,14.8418537 73.6222283,14.2140967 C72.6632934,13.2111261 72.7332039,9.50535831 72.3107351,9.50535831 C71.8882663,9.50535831 70.2105761,9.7908583 69.4656969,9.7918369 C68.7208178,9.79281551 66.6688646,9.65197755 65.558172,8.56805599 C64.9752602,7.99919419 65.0430269,7.59482134 64.3918914,6.9139351 C63.7407557,6.23304883 63.6215306,6.39106188 63.1173697,5.83579476 C62.6132088,5.28052764 62.3703039,4.76403869 62.1756645,4.75743181 C61.6516254,4.73964372 60.3650078,5.35884947 60.3650078,5.67334412 C60.3650078,5.98783878 60.4757391,6.33586412 60.4757391,6.57120147 C60.4757391,6.80653883 59.5789491,8.08506279 59.0557993,8.08506279 C58.5326495,8.08506279 57.3898493,7.81112509 57.0080264,7.81112509 C56.6262036,7.81112509 54.0390048,7.00621094 53.6008823,7.00621094 C53.16276,7.00621094 50.3639711,4.77521996 49.6372358,4.77521996 C48.9105005,4.77521996 47.4551624,5.976988 47.4551623,6.49159945 C47.4551623,6.93700886 47.0473076,7.80899055 45.8979725,7.78373399 C44.7486375,7.75847751 43.795492,8.0388454 42.308781,7.80899055 C40.5286272,7.5337676 38.6961091,6.80707244 38.4180659,6.80707244 C37.9078126,6.80707244 37.1819667,7.42067503 37.1819667,7.75286891 C37.1819667,8.08506279 37.2502732,7.96445904 37.2502732,8.25520652 C37.2502732,8.545954 35.2349638,9.79183663 34.7711375,9.79183663 C34.3073112,9.79183663 33.6746754,9.99844613 33.4778494,9.99844613 C33.2810234,9.99844613 32.6678655,10.4710775 32.3939279,10.4710775 C32.1199902,10.4710775 29.7521194,12.2422445 29.4841408,12.2422445 C29.2161622,12.2422445 28.5584449,12.3748552 28.5584449,12.6181084 C28.5584449,12.8613614 28.7493119,13.3576511 28.7493119,13.7759396 C28.7493119,14.1942282 28.6147445,14.7766125 28.1579445,14.7766125 C27.7011446,14.7766125 22.0914707,19.7222544 22.0914707,20.4461435 C22.0914707,21.1700327 22.167693,20.2177436 22.167693,21.4202232 C22.167693,21.7371192 20.7562026,23.7357968 19.1624724,23.7357968 C18.499241,23.7357968 18.3948244,23.930755 18.2606127,24.2528096 C18.1264011,24.5748642 18.0181601,24.6147097 17.6395391,24.6147097 C17.2609182,24.6147097 16.9651011,24.5748642 16.9651011,26.0225536 C16.9651011,26.5869331 16.4683408,27.0134324 16.223157,27.4396473 C15.83942,28.1067159 15.6239188,28.6354563 15.4576435,28.6354563 C15.2961256,28.6354563 14.7639054,28.6603598 14.7639054,29.4009698 C14.7639054,29.6943854 14.5508728,29.5911048 14.5261666,29.6943854 C14.465509,29.9479556 14.8853985,30.5375442 14.8853985,30.9498738 C14.8853985,32.9510416 13.6880775,34.3348715 13.6880775,34.6434071 C13.6880775,34.9519427 12.6549412,35.1218197 12.6549412,35.9536829 C12.6549412,36.7855462 12.8057848,36.5240602 12.8057848,36.9900211 C12.8057848,39.1681812 10.7955449,41.381295 10.6551074,41.7837521 C10.6067279,41.922395 10.4029602,42.9920128 10.4029602,42.9920128 C10.4029602,42.9920128 9.53756628,45.3532674 9.53756628,45.5341187 C9.53756628,45.8100131 9.1282607,46.8620048 9.1282607,47.4611989 C9.1282607,47.7891459 9.06166903,48.3338278 8.84551793,48.7316292 C8.66673806,49.0606534 8.33126228,49.2383876 8.33126228,49.562781 C8.33126228,50.279377 8.30206205,51.2895744 8.14297459,51.9475505 C8.0491379,52.3356534 7.78934603,52.3117531 7.78934603,52.4864428 C7.78934603,52.9572954 7.89225046,52.857237 8.79215349,52.857237 C9.43101519,52.857237 10.8465079,55.2600616 10.8465079,56.0531467 C10.8465079,56.8462317 10.6551074,56.6989458 10.6551074,57.9736453 C10.6551074,59.2483447 15.6043958,63.1956263 15.7150382,67.4478857 C15.7365742,68.2755669 15.8195179,69.2389905 14.8853985,70.4216212 C14.3571791,71.090367 13.5919325,70.7355823 13.6199488,70.2554798 C13.6832218,69.1712019 14.2347076,68.9833596 14.2347076,68.060421 C14.2347076,67.1374823 12.8057848,64.4769073 11.2338451,64.4769073 C10.9589291,64.4769073 10.8465079,67.1106222 10.8465079,67.4478857 C10.8465079,67.7851492 10.146455,69.1009393 10.1573058,70.4216212 C10.1681565,71.7423031 11.8241452,74.4657592 12.1596299,74.8018665 C12.4951146,75.1379737 13.9715397,75.8304603 14.5868243,76.1337549 C16.3678637,77.0116895 17.7703711,77.9404983 18.6949107,78.9663413 C19.6194502,79.9921845 21.0035469,81.4956398 21.0035469,83.2247377 C21.0035469,84.9538358 19.7965314,85.6687419 19.7965314,86.9874671 L19.7965314,87.8039436 C19.7965314,88.0086853 19.86466,88.4315988 19.2754272,89.0944744 C18.9864341,89.4195861 17.6395391,90.2801446 16.6388663,90.7204011 C15.6381934,91.1606586 14.1376439,91.1106737 13.6880775,91.1106737 C12.8057848,91.1106737 11.9906454,90.208992 11.872529,90.208992 C11.6786381,90.208992 9.89395205,90.2801446 9.89395205,89.0136277 C9.89395205,88.5257872 9.89395205,88.5257872 10.3023682,88.509333 C13.6915593,88.3727912 15.9608414,86.9131126 16.0499892,84.4409142 C16.0959625,83.1660086 15.185129,79.9921845 11.5947669,79.9921845 C8.00440487,79.9921845 5.30158298,78.3172514 3.0632989,74.487016 C0.825014822,70.6567807 0,65.3753942 0,63.3352633 C0,59.2033407 1.93347632,55.8426905 3.93282477,54.3499638 C4.5655721,53.8775504 4.5348956,53.6996845 5.01977129,53.6996845 C5.40477133,53.6996845 6.62057499,52.7489812 6.62057499,52.5151707 C6.62057499,51.8414056 5.74623068,52.1156656 5.74175515,50.6824569 C5.73967712,50.017005 6.01919276,49.8427727 6.01919276,49.3231469 C6.01919276,48.8035212 5.6819264,48.5175534 5.93217323,47.9269374 C6.1827518,47.3355384 6.93382448,46.9245971 6.93382448,46.6249776 C6.93382448,46.325358 6.26490074,44.5501667 6.26490074,44.0923884 C6.26490074,43.63461 6.5392831,42.5133335 6.73655379,42.5133335 C6.93382448,42.5133335 6.95107899,42.9920128 7.21710091,42.9920128 C7.48312284,42.9920128 7.49299523,42.5658974 7.49299523,42.0230029 C7.49299523,41.4801082 7.00453241,41.2050953 7.00453241,40.4043693 C7.00453241,39.6036433 6.75697716,38.5293799 7.21710091,37.5588058 C7.65198979,36.6414617 8.84551793,36.2004094 8.84551793,35.9323371 C8.84551793,35.3806374 8.72367319,35.4609484 8.72367319,33.7387211 C8.72367319,32.8835802 8.96645446,32.288244 8.966454,31.9378211 C8.96645355,31.5873982 9.24880843,31.4132944 9.31846825,31.4132944 C9.94985203,31.4132944 10.5146699,30.9438906 10.5146699,30.5375442 C10.5146699,29.9479556 10.1573058,28.1562433 10.1573058,27.889243 C10.1573058,27.6222427 10.6269132,25.5182593 10.9799192,25.5182593 C11.3329252,25.5182593 11.7818983,26.0225536 12.1596299,26.0225536 C12.5373615,26.0225536 12.4951146,25.9158244 12.4951146,24.5748642 C12.4951146,23.2339041 13.5919325,21.6491568 13.5919325,21.3632121 C13.5919325,21.0772675 13.3410305,20.7855416 13.6880775,20.7855416 C14.0351245,20.7855416 14.4911351,21.2366483 14.6404666,21.2366483 C14.7897982,21.2366483 15.1249883,20.5808892 15.3975029,20.5808892 C15.6700175,20.5808892 16.4170479,20.2221017 16.4170479,19.9807164 C16.4170479,19.739331 16.1574589,19.6825551 16.1574589,19.1890546 C16.1574589,18.5801175 18.630562,13.7759399 19.1624724,13.7759399 C19.6943829,13.7759399 19.7475041,14.9353721 20.1875832,14.9353721 C20.3399643,14.9353721 21.7667215,14.5350204 22.3419016,13.4179143 C23.9727903,10.2504268 24.0376732,10.6087576 25.7890954,8.70791516 C27.5405176,6.80707272 30.0902778,6.39106188 30.7683458,6.39106188 C31.4464138,6.39106188 31.7380785,7.17510949 31.9110683,7.17510949 C32.0831854,7.17510949 35.1314561,1.42534668 39.3751128,1.4253467 C40.2768146,1.4253467 41.3597604,1.3123403 41.9614783,2.21601762 C43.0580882,3.86293821 42.4243587,3.53379242 43.8699255,2.50949497 C46.9046243,0.359172774 50.097179,0 50.8530176,0 C52.1101958,0 53.3054266,0.551698403 54.6731415,0.551698403 C56.0408564,0.551698403 56.2356756,1.94272243 56.538697,1.94272243 C56.8417182,1.94272243 58.5358514,0.832296589 60.3594045,0.832296589 C62.1829577,0.832296589 62.7763318,0.961125595 65.0977589,1.94272243 C67.4191858,2.92431926 68.1458155,4.13671329 68.5585008,4.93213064 C68.7493885,5.30005111 68.938189,5.10325273 68.938189,4.93213064 C68.938189,4.76100854 68.5585008,3.73514629 68.5585008,3.55939928 C68.5585008,3.38365226 69.2377417,3.00476448 70.5121743,3.00476448 C71.786607,3.00476448 72.5576843,3.45888182 74.118996,5.0271889 C75.2081276,6.1212003 76.5845405,8.52683027 76.743689,9.06751117 C76.9028374,9.60819197 77.3874756,9.50535831 77.4398452,9.50535831 C77.731571,9.50535831 77.0316237,8.00483813 77.0316237,7.80899055 C77.0316237,7.61314289 77.8185718,7.53407452 77.9928069,7.53407452 C78.0838329,7.53407452 80.0934606,7.74169132 81.6293959,8.70791516 C83.0334292,9.59116224 83.540917,10.7747874 84.0871803,11.4171748 C84.6334435,12.0595622 85.1922974,14.2628905 85.1922974,14.5794308 C85.1922974,14.8959711 85.0265118,14.9353718 85.347677,14.9353718 C85.4964447,14.9353718 87.5926908,15.0287349 89.2506657,16.3973806 C91.1719891,17.9834178 92.6287206,20.3202937 92.6287206,21.8663919 C92.6287206,23.4124901 92.5817658,23.5174472 92.7739667,23.5174472 C93.3004188,23.5174472 94.1161891,23.5564892 95.0941984,24.268819 C96.2472017,25.108605 97.2801294,26.6084066 97.5277525,27.3754849 C97.7753746,28.1425631 98.1183863,28.9734557 97.7386421,30.5375442 C97.3257737,32.2380635 95.6877557,33.4376089 95.6877557,33.8182005 C95.6877557,34.198792 96.8595789,34.7723657 97.8349652,36.0837727 C98.9558681,37.5908272 99.9427873,39.5165219 99.9773376,40.5065817 C99.9860262,40.7555642 100.058048,41.2483781 99.9127215,41.6769564 C99.6852334,42.3478379 99.1727049,42.9000182 98.833103,43.2952565 C98.5896422,43.5786025 98.5145168,43.8837532 98.3243396,44.0086839 C98.0871921,44.1644702 97.7603107,44.1231149 97.7386421,44.3729965 C97.7218113,44.5670853 98.0974189,45.0576132 98.4099668,45.6572211 C98.8225064,46.448658 99.2036523,47.4096262 99.2036523,47.9269374 C99.2036523,48.8361736 98.9116501,49.5883076 98.4099668,50.279377 C97.6656233,51.3047132 96.3418263,51.7498852 96.2838933,52.5151707 C96.2599896,52.8309248 96.6324378,52.9210701 96.7930565,53.1397408 C97.0217258,53.451057 97.1636386,53.829082 97.2801294,53.829082 C97.4784461,53.829082 97.9030049,53.7598082 97.9030049,53.1397408 C97.9030049,52.5196733 98.0990401,51.7518573 98.1248226,51.9475505 C98.1708284,52.2967354 98.5553814,52.5900072 98.8918257,53.074814 C99.3357571,53.7145047 99.7497047,54.5777376 99.7239787,55.2547251 C99.6452923,57.3253564 97.8889301,59.2761493 97.8349652,59.3222546 C97.5027705,59.6060646 96.4482779,60.4506853 96.4482779,60.7870594 C96.4482779,61.1234335 97.6995971,62.0463332 97.6995971,62.6907983 C97.6995971,63.0058039 98.3246174,64.4293351 98.3243396,65.1766101 C98.3240618,65.9238851 97.871909,67.292445 96.9462799,67.292445 C96.5861296,67.292445 96.193796,68.060421 95.7842009,68.1237468 C95.3746067,68.1870727 94.3864635,68.6298376 94.3864635,68.9425191 C94.3864635,69.4543456 94.9583968,70.531641 94.9583968,71.5737213 C94.9583968,72.6158018 94.6777444,73.2022385 93.6851203,74.3526599 C92.692497,75.5030813 90.963268,76.7048438 90.8087304,76.7048438 C90.5249204,76.7048438 89.602427,77.2060251 89.602427,77.4799628 C89.602427,77.7539004 89.8337621,78.9065731 89.8337621,79.2339642 C89.8337621,79.36376 90.0967905,81.0098952 88.5006171,82.3552581 C86.9044433,83.7006211 85.2998268,83.9189207 84.4832003,83.9189207 C83.6665737,83.9189207 83.2944788,83.6756676 83.1134842,83.6756676 C82.9324897,83.6756676 82.3555141,87.3765553 81.7826631,87.3765553 C81.5344091,87.3765553 81.458207,87.6703545 81.1794666,87.9405511 C80.9007261,88.2107477 80.3112575,88.509333 79.7146117,88.509333 C78.6616472,88.509333 78.8920817,88.8679754 78.1670419,88.8679754 C77.442002,88.8679754 77.0819641,88.3061923 76.9028374,88.3061923 C76.7237106,88.3061923 76.5832731,88.7700183 76.5832731,89.1319182 C76.5832731,89.2811479 76.5807864,90.1873215 76.165696,90.7204011 C75.574138,91.4801091 74.466182,91.9034921 74.118996,91.9034921 C73.5156439,91.9034921 73.8903348,91.4871602 73.2592887,91.4871602 C72.9755933,91.4871602 72.2437238,91.9034921 71.786607,91.9034921 C71.3294902,91.9034921 70.8372573,92.0888442 70.6857868,92.0888442 C70.4106039,92.0888442 70.2860646,91.9034921 70.1356602,92.0888442 C69.9852557,92.2741971 70.2395764,92.2229008 70.0281974,92.527139 C69.8168185,92.8313781 69.4786433,93.2638468 69.306932,93.4475932 C69.1352207,93.6313386 69.0881711,93.4475932 68.8315379,93.6707451 C68.5749048,93.893898 68.4122818,94.1422205 68.1458155,94.1422205 L66.427924,94.1422205 C65.9581387,94.1422205 65.757075,94.4041514 65.558172,94.4041514 C65.061849,94.4041514 64.3963384,93.6707451 63.7407557,93.6707451 C63.2810208,93.6707451 63.2810208,94.0591497 63.2810208,94.2876387 C63.2810208,94.5161277 62.479931,95.5543779 62.1262134,95.905294 C61.9331723,96.0968064 61.1044616,96.7143221 60.5259673,96.7143257 C59.947473,96.7143303 59.3519013,97.1200027 59.0557993,97.1200027 C58.4039522,97.1200027 57.5962808,96.5611433 56.7387137,96.5611433 C55.8811465,96.5611433 56.6501286,97.0263927 54.7438605,97.0263927 C52.8375925,97.0263927 51.8219775,95.9852518 51.2295429,95.9852518 C50.6371082,95.9852518 49.7745604,94.9884036 49.3814865,94.8457869 C48.9884127,94.7031701 48.5831466,93.8411563 48.4932793,93.8411563 C48.2398869,93.8411563 48.106787,94.0375375 48.106787,94.7031701 C48.106787,95.3688027 47.2107975,95.708023 46.4089518,95.708023 C45.6071059,95.708023 44.1158356,94.9086234 42.9887334,93.6707451 C41.8616311,92.4328678 41.9268248,91.1652834 41.1073687,91.1652834 C40.2879128,91.1652834 39.1673921,90.3147869 38.8335083,90.3147869 C38.2612632,90.3147869 37.1819667,89.2762699 37.1819667,88.7111846 C37.1819667,88.1460988 36.030806,87.31428 36.030806,86.9131126 C36.030806,86.4564834 35.7738115,84.4954794 35.5512372,84.2230982 C35.3286628,83.950717 35.2064729,83.9189207 35.0666877,83.9189207 C34.5647948,83.9189207 34.527437,84.2558242 33.8555809,84.285001 C32.5673624,84.3409448 31.537339,82.0470727 31.537339,81.6573341 C31.537339,81.2675956 31.8053177,81.0539597 31.8053177,80.5230722 C31.8053177,79.9921845 31.3475394,79.8420525 31.3475394,79.1022429 C31.3475394,78.3624334 31.2484593,78.9663413 30.4124603,78.9663413 C29.5764614,78.9663413 28.7513575,76.1691534 28.7513575,75.9631665 C28.7513575,75.7571795 28.9016675,75.881252 28.9016675,74.487016 C28.9016675,73.0927802 36.1052495,76.5242061 36.1052495,76.8633362 L36.1052495,76.8633362 L36.1052495,76.8633362 Z" id="hair" fill="#C7C7C7"></path>
        </g>
    </g>
</svg>